# xmcd
#
# Track frame offsets: 
#        150
#        14829
#        34146
#        51840
#        68941
#        83568
#        107593
#        123886
#        143686
#        157475
#        178710
#        201849
#        213196
#        229312
#
# Disc length: 3340 seconds
#
# Revision: 0
# Processed by: cddbd v1.5.2PL0 Copyright (c) Steve Scherf et al.
# Submitted via: ExactAudioCopyFreeDBPlugin 1.0
#
DISCID=c80d0a0e
DTITLE=Belmondo - Meilė Yra
DYEAR=1995
DGENRE=Eurodance
TTITLE0=Šokime Kartu
TTITLE1=Mano Prince
TTITLE2=Vėl Meilė Švies
TTITLE3=Savoj Širdy
TTITLE4=Karštoji Ona
TTITLE5=Sugrįžk
TTITLE6=Gyvensim Amžinai
TTITLE7=Meilė Yra
TTITLE8=Mažasis Jonas
TTITLE9=Karštoj Nakty
TTITLE10=Neverk
TTITLE11=Outro
TTITLE12=Вместе На Всегда
TTITLE13=Не Плачь
EXTD=
EXTT0=
EXTT1=
EXTT2=
EXTT3=
EXTT4=
EXTT5=
EXTT6=
EXTT7=
EXTT8=
EXTT9=
EXTT10=
EXTT11=
EXTT12=
EXTT13=
PLAYORDER=
